<?xml version="1.0" standalone="no"?>
<!DOCTYPE svg PUBLIC "-//W3C//DTD SVG 20010904//EN"
 "http://www.w3.org/TR/2001/REC-SVG-20010904/DTD/svg10.dtd">
<svg version="1.0" xmlns="http://www.w3.org/2000/svg"
 width="1280.000000pt" height="1280.000000pt" viewBox="0 0 1280.000000 1280.000000"
 preserveAspectRatio="xMidYMid meet">

<g transform="translate(0.000000,1280.000000) scale(0.100000,-0.100000)"
fill="#000000" stroke="none">
<path d="M2980 10909 c-34 -25 -40 -34 -33 -52 4 -12 7 -34 8 -49 0 -16 3 -28
7 -28 3 0 13 -20 21 -44 11 -33 12 -46 4 -50 -9 -3 -9 -5 0 -5 14 -1 37 -76
28 -90 -3 -5 0 -11 5 -13 14 -4 233 -736 226 -754 -3 -7 -1 -14 4 -16 11 -4
56 -150 245 -793 13 -44 41 -138 63 -210 22 -71 52 -168 65 -215 14 -47 66
-222 116 -390 50 -168 94 -319 97 -337 5 -25 -9 -66 -69 -205 -154 -356 -320
-735 -348 -796 -16 -35 -29 -65 -29 -68 0 -2 -9 -23 -20 -47 -22 -48 -169
-389 -268 -619 -37 -87 -72 -158 -79 -158 -6 0 -9 -8 -6 -19 3 -11 -4 -28 -16
-40 -12 -12 -16 -21 -11 -21 14 0 -15 -57 -32 -63 -9 -4 -9 -6 -1 -6 13 -1
-60 -174 -77 -179 -5 -2 -8 -8 -5 -12 3 -5 -12 -52 -35 -104 -22 -52 -40 -101
-40 -108 1 -7 17 -25 37 -40 l36 -28 3758 0 c2710 0 3773 3 3811 11 61 13 142
51 177 82 36 33 64 102 56 140 -16 75 -85 139 -190 175 -47 16 -259 17 -3395
22 l-3345 5 3340 2 c2893 2 3347 1 3395 -12 30 -8 56 -12 58 -10 6 6 -66 34
-113 45 -24 6 -1370 10 -3392 10 -1844 0 -3353 2 -3353 4 0 5 27 72 45 111 7
17 43 100 80 185 37 85 77 178 90 205 12 28 32 75 45 105 12 30 34 80 47 110
14 30 31 69 38 85 14 33 32 72 69 155 13 30 41 96 61 145 20 50 52 122 70 160
19 39 37 82 40 98 4 15 11 27 15 27 4 0 11 16 14 35 4 19 11 35 16 35 6 0 10
9 10 19 0 11 4 22 9 25 4 3 16 27 26 53 10 26 27 68 38 93 11 25 33 74 48 110
57 128 34 115 202 118 81 1 147 -1 147 -6 0 -5 -49 -112 -109 -238 -335 -702
-651 -1368 -656 -1385 -6 -18 2 -19 239 -19 l246 0 0 27 c0 26 205 465 667
1432 100 211 183 392 183 401 0 10 -121 389 -269 841 -376 1151 -381 1167
-388 1232 -5 49 -3 57 11 57 9 0 16 8 16 20 0 27 14 25 30 -5 7 -14 22 -25 32
-25 11 0 18 -7 18 -19 0 -11 6 -23 12 -27 9 -6 5 -10 -11 -14 -14 -3 -26 -11
-29 -18 -3 -9 275 -12 1290 -12 1397 0 1399 0 1607 -54 387 -100 697 -331 832
-620 57 -123 70 -185 78 -398 7 -193 13 -233 24 -186 4 13 16 28 28 33 13 6
24 18 25 28 1 10 9 28 17 40 20 32 22 277 2 366 -47 209 -210 444 -425 614
-36 29 -66 55 -68 59 -2 5 -8 8 -14 8 -5 0 -24 11 -41 24 -71 53 -356 185
-406 188 -26 2 -165 55 -168 64 -4 11 43 11 54 1 12 -13 43 -7 43 8 0 14 -4
17 -32 19 -7 1 -20 8 -28 18 -33 35 -269 91 -460 108 -168 14 -3083 14 -3168
-1 -54 -10 -67 -16 -80 -40 l-17 -28 -11 37 c-38 121 -74 243 -74 252 0 14
3759 14 3955 0 825 -59 1477 -458 1611 -988 93 -366 -91 -742 -494 -1009 -303
-201 -678 -319 -1117 -352 -86 -7 -570 -11 -1250 -11 -1051 0 -1110 1 -1118
17 -6 15 -7 15 -3 -2 7 -31 32 -114 53 -175 l19 -55 -44 -94 c-33 -73 -40 -96
-30 -103 7 -5 553 -7 1223 -4 1001 3 1233 6 1345 19 942 107 1665 499 1975
1072 270 499 128 1078 -367 1501 -322 275 -743 464 -1263 567 -368 73 -218 69
-2877 73 l-2387 3 -41 -30z m795 -491 c6 -30 39 -133 66 -213 6 -16 15 -46 19
-65 8 -33 29 -103 66 -225 8 -27 18 -61 20 -75 3 -14 12 -39 20 -57 8 -17 14
-42 14 -56 0 -14 4 -28 9 -31 5 -4 12 -25 16 -49 4 -23 11 -46 15 -52 4 -5 11
-26 15 -45 4 -19 15 -60 25 -90 10 -30 27 -86 39 -125 31 -107 81 -275 96
-320 7 -22 20 -69 30 -105 10 -36 23 -83 31 -105 13 -40 71 -235 99 -330 8
-27 28 -97 45 -155 17 -58 34 -114 37 -125 l5 -20 -15 20 c-8 11 -35 92 -61
180 -26 88 -51 171 -56 185 -5 14 -63 210 -130 435 -67 226 -132 444 -145 485
-13 41 -42 140 -66 220 -23 80 -53 170 -66 200 -26 57 -36 89 -72 225 -12 44
-27 98 -33 120 -7 22 -11 44 -10 48 2 5 -7 38 -18 74 -23 73 -24 83 -11 83 5
0 12 -15 16 -32z m935 -241 c0 -18 -2 -19 -10 -7 -13 20 -13 43 0 35 6 -3 10
-16 10 -28z m2840 -62 c0 -7 -30 -13 -34 -7 -3 4 4 9 15 9 10 1 19 0 19 -2z
m-3578 -157 c3 -7 47 -13 123 -17 l118 -6 73 -220 c40 -121 130 -395 199 -610
70 -214 169 -519 221 -678 52 -158 94 -292 94 -297 0 -6 -59 -10 -153 -10
l-154 0 -12 43 c-7 23 -19 60 -26 82 -7 22 -20 67 -30 100 -10 33 -23 78 -30
100 -6 22 -19 65 -28 95 -9 30 -23 80 -32 110 -9 30 -20 64 -25 75 -4 11 -13
40 -20 65 -6 25 -16 63 -21 85 -6 22 -14 49 -19 60 -5 11 -16 47 -25 80 -9 33
-21 71 -25 85 -9 27 -25 82 -60 200 -12 41 -32 111 -46 155 -13 44 -31 105
-40 135 -9 30 -22 73 -29 95 -7 22 -21 67 -30 100 -9 33 -23 80 -31 104 -8 25
-14 53 -14 63 0 20 16 25 22 6z m461 -2330 c-3 -13 -9 -27 -13 -33 -4 -5 -35
-73 -68 -150 -101 -236 -290 -672 -300 -692 -14 -29 -37 -81 -77 -178 -20 -49
-41 -94 -46 -100 -5 -5 -9 -15 -9 -22 0 -7 -14 -43 -31 -80 -16 -38 -36 -81
-43 -98 -7 -16 -24 -55 -39 -85 -14 -30 -29 -67 -33 -82 -3 -16 -10 -28 -15
-28 -5 0 -9 -5 -9 -11 0 -10 -9 -32 -45 -114 -42 -97 -53 -115 -59 -100 -3 8
57 158 135 338 77 177 201 459 274 627 73 168 174 402 225 520 104 242 116
268 138 293 20 22 21 22 15 -5z"/>
<path d="M4806 9868 c19 -61 43 -122 43 -112 1 14 -40 134 -46 134 -2 0 -1
-10 3 -22z"/>
<path d="M4852 9730 c0 -8 8 -37 18 -65 10 -27 18 -43 18 -35 0 8 -8 38 -18
65 -10 28 -18 43 -18 35z"/>
<path d="M4891 9605 c1 -19 18 -51 18 -35 0 8 -4 22 -9 30 -5 8 -9 11 -9 5z"/>
<path d="M5015 9230 c21 -76 70 -219 73 -216 4 5 -67 228 -75 236 -3 3 -2 -6
2 -20z"/>
<path d="M5170 8745 c0 -5 5 -17 10 -25 5 -8 10 -10 10 -5 0 6 -5 17 -10 25
-5 8 -10 11 -10 5z"/>
<path d="M5192 8690 c0 -8 8 -37 18 -65 10 -27 18 -43 18 -35 0 8 -8 38 -18
65 -10 28 -18 43 -18 35z"/>
<path d="M5231 8565 c1 -19 18 -51 18 -35 0 8 -4 22 -9 30 -5 8 -9 11 -9 5z"/>
<path d="M5216 7423 c-6 -14 -5 -15 5 -6 7 7 10 15 7 18 -3 3 -9 -2 -12 -12z"/>
<path d="M5046 7063 c-6 -14 -5 -15 5 -6 7 7 10 15 7 18 -3 3 -9 -2 -12 -12z"/>
<path d="M5026 7025 c-9 -26 -7 -32 5 -12 6 10 9 21 6 23 -2 3 -7 -2 -11 -11z"/>
<path d="M5005 6979 c-4 -6 -5 -12 -2 -15 2 -3 7 2 10 11 7 17 1 20 -8 4z"/>
<path d="M8930 6909 c-305 -39 -506 -143 -624 -323 -100 -152 -129 -313 -73
-408 46 -79 140 -131 290 -162 99 -21 318 -21 428 -1 101 19 210 55 203 67 -4
5 2 8 12 6 13 -2 18 2 16 14 -2 12 18 31 65 62 94 60 168 141 186 202 8 27 22
66 31 86 11 25 16 67 16 125 0 73 -3 90 -20 108 -19 20 -36 85 -43 155 -2 21
-11 28 -56 43 -104 34 -282 45 -431 26z m345 -203 c48 -20 68 -56 67 -120 0
-56 -36 -161 -78 -227 -40 -63 -119 -126 -189 -148 -83 -27 -106 -26 -135 4
-29 31 -39 121 -21 192 30 116 115 245 195 294 37 23 112 25 161 5z"/>
<path d="M7855 6904 c-185 -28 -298 -75 -378 -156 -40 -41 -80 -106 -172 -277
-66 -123 -137 -242 -157 -266 -44 -50 -87 -72 -169 -88 -48 -9 -64 -17 -81
-40 -12 -16 -17 -32 -12 -37 16 -15 275 -40 419 -40 102 0 164 6 229 20 91 20
153 49 149 68 -2 6 22 29 51 51 83 62 110 100 230 332 133 258 157 297 200
327 26 18 41 21 71 16 21 -3 59 -3 84 1 45 7 46 7 24 24 l-21 18 22 13 c20 14
19 15 -24 22 -54 9 -423 18 -465 12z"/>
<path d="M5140 6878 c-48 -13 -66 -32 -89 -92 -10 -28 -76 -196 -145 -373 -69
-178 -126 -333 -126 -347 0 -18 8 -27 31 -35 34 -12 502 -16 557 -5 32 6 51
32 32 44 -7 5 -6 11 3 18 8 7 30 51 50 100 80 193 247 631 247 646 0 8 4 17
10 21 5 3 7 12 3 20 -4 13 -46 15 -272 14 -146 0 -282 -5 -301 -11z"/>
<path d="M5991 6877 c-28 -14 -29 -15 -206 -471 -75 -191 -135 -356 -133 -365
3 -13 18 -17 82 -19 l79 -3 -15 22 c-13 20 -11 34 18 147 51 192 60 213 79
182 3 -5 12 -7 20 -4 18 7 38 -8 219 -174 82 -76 160 -145 175 -154 22 -16 52
-18 224 -18 190 0 197 1 197 20 0 11 -5 20 -10 20 -7 0 -7 6 -1 18 5 9 73 181
151 382 152 391 152 390 176 414 14 15 9 16 -53 16 -41 0 -76 -5 -84 -12 -9
-7 -28 -62 -43 -123 -49 -201 -44 -188 -73 -180 -14 3 -31 1 -39 -6 -11 -9
-18 -9 -32 3 -9 8 -67 57 -127 109 -61 52 -128 109 -150 126 -24 19 -36 36
-30 40 13 10 18 36 6 29 -5 -4 -12 -2 -16 4 -9 15 -384 13 -414 -3z"/>
<path d="M4836 6623 c-6 -14 -5 -15 5 -6 7 7 10 15 7 18 -3 3 -9 -2 -12 -12z"/>
<path d="M4666 6263 c-6 -14 -5 -15 5 -6 7 7 10 15 7 18 -3 3 -9 -2 -12 -12z"/>
<path d="M4646 6225 c-9 -26 -7 -32 5 -12 6 10 9 21 6 23 -2 3 -7 -2 -11 -11z"/>
<path d="M4625 6179 c-4 -6 -5 -12 -2 -15 2 -3 7 2 10 11 7 17 1 20 -8 4z"/>
<path d="M7444 5261 c-23 -10 -44 -26 -47 -36 -12 -30 -8 -774 4 -797 25 -46
143 -63 209 -30 19 9 36 25 38 34 3 15 0 16 -28 7 -17 -6 -34 -8 -38 -5 -8 8
-2 187 7 203 9 18 27 3 44 -37 l15 -35 1 31 c2 60 25 50 170 -76 75 -65 150
-124 165 -130 96 -36 224 21 183 83 -17 26 -257 232 -256 220 0 -4 54 -53 119
-108 65 -55 122 -108 125 -117 9 -26 -2 -38 -36 -38 -22 0 -29 5 -29 20 0 13
-47 59 -135 135 -116 100 -135 120 -135 145 0 18 7 32 18 37 15 8 25 8 56 4 5
0 2 -9 -5 -18 -12 -15 -12 -16 1 -8 37 21 207 139 228 158 66 61 -36 137 -144
108 -22 -6 -102 -54 -179 -106 l-140 -96 -6 38 c-5 35 -6 36 -13 13 -6 -23
-43 -57 -51 -48 -2 2 -5 96 -7 211 -3 195 -2 207 15 207 10 0 27 -5 39 -11 16
-9 19 -8 16 7 -5 26 -67 54 -118 54 -25 0 -63 -9 -86 -19z m670 -297 c9 -3 16
-12 16 -20 0 -14 -38 -44 -56 -44 -13 0 -28 46 -19 60 7 11 36 13 59 4z"/>
<path d="M8890 5255 c-317 -50 -559 -232 -585 -442 -8 -62 14 -155 51 -219
119 -203 499 -344 828 -306 261 31 463 126 572 269 l29 38 -43 -35 c-61 -50
-104 -80 -114 -80 -5 0 -3 6 4 14 7 8 16 12 21 9 4 -2 7 3 7 11 0 8 18 43 39
78 98 156 75 304 -68 445 -57 56 -61 63 -39 63 30 0 113 -54 135 -86 8 -13 20
-24 26 -24 6 0 -13 25 -43 55 -174 176 -502 260 -820 210z m677 -141 c-3 -3
-12 -4 -19 -1 -8 3 -5 6 6 6 11 1 17 -2 13 -5z m-194 -38 c119 -58 138 -161
45 -241 -63 -53 -179 -91 -340 -110 -32 -3 -58 -8 -58 -10 0 -62 119 -82 304
-49 48 8 90 13 92 12 2 -2 15 -30 28 -61 l25 -56 -40 -11 c-143 -39 -371 -52
-481 -29 -154 33 -239 114 -254 242 -14 115 50 225 163 284 51 26 78 36 168
57 11 3 81 4 156 2 125 -2 141 -4 192 -30z"/>
<path d="M9045 4948 c-25 -23 -38 -45 -42 -72 l-6 -39 48 6 c100 14 166 76
125 117 -32 32 -83 26 -125 -12z"/>
<path d="M5180 5214 c-178 -32 -301 -77 -401 -145 -122 -83 -190 -173 -213
-283 -50 -239 180 -468 543 -541 119 -25 414 -17 526 13 130 36 275 113 351
189 36 35 64 67 61 69 -5 6 -24 -8 -88 -64 -20 -18 -39 -29 -42 -25 -7 11 11
53 22 53 9 0 19 16 62 102 71 140 29 295 -114 423 -60 53 -62 70 -3 40 15 -8
33 -15 40 -15 6 0 28 -16 50 -36 21 -19 40 -33 43 -31 7 8 -92 91 -150 126
-148 88 -282 122 -497 126 -91 2 -176 1 -190 -1z m461 -155 l97 -12 4 -191 c6
-209 15 -251 68 -318 l30 -37 -53 -10 c-28 -6 -81 -17 -117 -25 l-65 -14 -37
36 c-21 20 -41 44 -44 54 -5 16 -10 14 -46 -16 -58 -50 -114 -66 -228 -66
-168 0 -271 48 -324 153 -57 112 -44 231 35 321 48 54 153 109 249 131 75 17
276 14 431 -6z"/>
<path d="M5291 4922 c-67 -34 -91 -102 -76 -218 9 -71 37 -104 91 -104 29 0
44 8 74 38 47 46 60 92 60 203 0 81 -1 87 -22 93 -42 11 -93 6 -127 -12z"/>
<path d="M2905 5170 c-45 -18 -45 -17 -43 -426 l3 -389 90 0 90 0 1 55 c1 30
-1 42 -3 25 -3 -16 -10 -33 -16 -37 -19 -12 -57 -9 -57 5 -1 6 -5 69 -9 139
-5 70 -7 137 -4 148 5 19 6 19 24 -3 10 -13 21 -36 24 -50 12 -45 23 -40 23 9
0 25 3 48 5 50 3 3 58 -54 123 -126 95 -104 126 -132 156 -140 52 -14 93 5
143 66 22 27 44 54 50 60 10 11 75 87 114 134 l20 25 1 -158 c0 -154 1 -158
25 -182 l24 -25 288 0 c245 0 292 2 311 16 36 25 28 43 -15 37 l-38 -5 0 366
0 366 25 0 c15 0 31 -5 38 -12 9 -9 12 -9 12 3 0 9 -9 24 -21 35 -19 17 -41
19 -204 22 -112 2 -199 -1 -224 -8 -35 -9 -55 -27 -138 -128 -53 -64 -102
-123 -108 -130 -10 -11 -36 11 -136 113 -68 70 -136 133 -151 141 -21 11 -72
14 -215 13 -103 0 -197 -4 -208 -9z m453 -49 c8 -5 51 -44 94 -87 79 -79 100
-116 79 -137 -8 -8 -31 11 -87 69 -42 43 -94 97 -115 119 l-39 41 26 2 c14 1
33 -2 42 -7z m186 -479 c-9 -15 -44 -57 -77 -94 -57 -65 -87 -84 -87 -54 0 16
20 42 115 150 52 60 60 67 63 47 2 -12 -4 -34 -14 -49z"/>
<path d="M6880 5095 c-35 -8 -85 -22 -109 -30 -42 -14 -47 -14 -88 6 -118 57
-267 -27 -191 -108 22 -24 23 -30 28 -266 l5 -241 34 -23 c27 -19 48 -23 105
-23 80 0 131 23 141 62 3 13 4 118 3 233 l-3 210 -3 -217 c-2 -203 -3 -218
-21 -228 -11 -5 -28 -10 -38 -10 -17 0 -18 13 -13 237 5 223 6 238 24 241 10
2 22 -1 25 -6 4 -7 20 -8 46 -2 22 5 85 10 140 10 75 0 109 4 135 18 62 31 71
86 19 124 -34 25 -156 32 -239 13z m261 -57 c4 -6 5 -17 2 -24 -5 -14 -49 -27
-63 -19 -12 7 -13 48 -3 59 10 9 56 -2 64 -16z"/>
<path d="M10013 5099 c-63 -19 -65 -30 -61 -311 3 -223 5 -257 22 -291 41 -82
132 -117 306 -117 137 0 182 22 166 83 -8 32 -53 47 -144 47 -35 0 -72 5 -82
10 -14 8 -21 6 -28 -6 -13 -23 -54 -14 -69 16 -13 26 -18 224 -7 254 6 16 33
11 46 -8 5 -8 11 -7 20 2 8 8 44 12 104 12 83 0 96 3 120 23 25 22 26 25 13
53 -9 18 -27 33 -49 41 -46 16 -165 16 -207 1 -18 -6 -36 -8 -40 -4 -4 4 -10
39 -13 78 -6 78 2 89 46 70 19 -9 24 -9 24 3 0 37 -103 64 -167 44z m394 -245
c5 -15 -47 -28 -60 -15 -5 5 -6 14 -2 21 9 14 57 9 62 -6z m28 -409 c0 -5 -15
-11 -32 -13 -25 -3 -33 1 -33 13 0 12 8 16 33 13 17 -2 32 -7 32 -13z"/>
<path d="M9832 4750 c0 -14 2 -19 5 -12 2 6 2 18 0 25 -3 6 -5 1 -5 -13z"/>
<path d="M9791 4623 c-10 -26 -10 -27 4 -9 8 11 15 23 15 28 0 15 -7 8 -19
-19z"/>
<path d="M6056 4543 c-6 -14 -5 -15 5 -6 7 7 10 15 7 18 -3 3 -9 -2 -12 -12z"/>
<path d="M3032 4520 c0 -14 2 -19 5 -12 2 6 2 18 0 25 -3 6 -5 1 -5 -13z"/>
</g>
</svg>
